<?xml version="1.0" standalone="no"?>
<!DOCTYPE svg PUBLIC "-//W3C//DTD SVG 20010904//EN"
 "http://www.w3.org/TR/2001/REC-SVG-20010904/DTD/svg10.dtd">
<svg version="1.0" xmlns="http://www.w3.org/2000/svg"
 width="500.000000pt" height="500.000000pt" viewBox="0 0 500.000000 500.000000"
 preserveAspectRatio="xMidYMid meet">

<g transform="translate(0.000000,500.000000) scale(0.100000,-0.100000)"
fill="#000000" stroke="none">
<path d="M1060 2585 l0 -407 173 4 c210 5 257 19 343 103 78 77 115 160 122
274 10 182 -71 327 -223 398 -57 27 -67 28 -237 31 l-178 4 0 -407z m345 287
c74 -26 121 -68 158 -142 28 -57 32 -74 32 -145 -1 -100 -28 -167 -92 -226
-63 -57 -101 -71 -225 -77 l-108 -5 0 307 0 306 93 0 c61 -1 109 -7 142 -18z"/>
<path d="M1723 2983 c3 -4 80 -125 171 -268 l166 -260 0 -137 0 -138 50 0 50
0 0 139 0 139 161 254 c89 139 164 259 166 266 4 9 -11 12 -54 12 l-58 0 -129
-205 c-71 -113 -133 -204 -138 -203 -5 2 -66 93 -136 203 l-128 200 -63 3
c-34 2 -61 -1 -58 -5z"/>
<path d="M2700 2598 c-100 -216 -184 -399 -187 -405 -4 -10 10 -13 51 -13 l57
0 36 80 36 80 187 0 188 0 33 -80 33 -80 58 0 c53 0 58 2 49 18 -5 9 -84 188
-176 397 -91 209 -170 384 -174 388 -4 4 -90 -169 -191 -385z m256 -10 c35
-78 64 -143 64 -145 0 -2 -63 -3 -139 -3 l-140 0 24 53 c69 156 116 249 122
244 3 -4 34 -70 69 -149z"/>
<path d="M3310 2587 l0 -407 50 0 50 0 2 275 3 274 254 -277 c140 -152 258
-278 263 -280 4 -2 8 181 8 407 l0 411 -55 0 -55 0 -2 -274 -3 -273 -230 249
c-126 137 -242 261 -257 275 l-28 27 0 -407z"/>
<path d="M1230 2015 l0 -35 635 0 635 0 0 35 0 35 -635 0 -635 0 0 -35z"/>
<path d="M2852 2025 c-17 -37 -16 -40 22 -41 35 0 35 0 22 30 -16 39 -30 42
-44 11z m28 -5 c0 -5 -5 -10 -11 -10 -5 0 -7 5 -4 10 3 6 8 10 11 10 2 0 4 -4
4 -10z"/>
<path d="M2940 2015 c0 -31 3 -35 25 -35 14 0 25 5 25 10 0 6 -7 10 -15 10 -9
0 -15 9 -15 25 0 14 -4 25 -10 25 -5 0 -10 -16 -10 -35z"/>
<path d="M3038 2043 c6 -2 12 -18 12 -34 0 -16 5 -29 10 -29 6 0 10 13 10 29
0 16 6 32 13 34 6 3 -4 5 -23 5 -19 0 -29 -2 -22 -5z"/>
<path d="M3139 2024 c-5 -15 -11 -30 -14 -34 -2 -3 12 -6 30 -6 39 1 40 4 23
41 -14 32 -26 32 -39 -1z"/>
<path d="M3290 2015 c0 -30 3 -35 24 -35 30 0 50 23 41 50 -4 14 -15 20 -36
20 -27 0 -29 -3 -29 -35z m48 3 c2 -9 -4 -18 -13 -21 -11 -5 -15 0 -15 19 0
28 23 29 28 2z"/>
<path d="M3400 2015 c0 -32 3 -35 28 -34 l27 0 -25 11 c-23 9 -24 11 -6 17 19
7 19 8 0 15 -19 8 -19 8 1 16 19 8 19 9 -2 9 -20 1 -23 -4 -23 -34z"/>
<path d="M3490 2041 c0 -19 20 -61 29 -61 7 0 31 51 31 66 0 14 -19 0 -24 -18
l-7 -23 -9 23 c-10 22 -20 29 -20 13z"/>
<path d="M3230 1990 c0 -5 5 -10 11 -10 5 0 7 5 4 10 -3 6 -8 10 -11 10 -2 0
-4 -4 -4 -10z"/>
</g>
</svg>
